<?xml version="1.0" encoding="utf-8"?>
<!-- Generator: Adobe Illustrator 22.1.0, SVG Export Plug-In . SVG Version: 6.00 Build 0)  -->
<svg version="1.1" id="Layer_1" xmlns="http://www.w3.org/2000/svg" xmlns:xlink="http://www.w3.org/1999/xlink" x="0px" y="0px"
	 viewBox="0 0 256 256" style="enable-background:new 0 0 256 256;" xml:space="preserve">
<style type="text/css">
	.st0{fill:#DE4C36;}
</style>
<g>
	<path class="st0" d="M241.8,117.5L138.5,14.2c-5.9-5.9-15.6-5.9-21.5,0L95.6,35.7l27.2,27.2c6.3-2.1,13.6-0.7,18.6,4.3
		c5.1,5.1,6.5,12.4,4.3,18.7l26.2,26.2c6.3-2.2,13.7-0.8,18.7,4.3c7.1,7.1,7.1,18.5,0,25.6c-7.1,7.1-18.6,7.1-25.6,0
		c-5.3-5.3-6.6-13.2-3.9-19.7l-24.4-24.4l0,64.3c1.7,0.9,3.4,2,4.8,3.4c7.1,7.1,7.1,18.5,0,25.6c-7.1,7.1-18.6,7.1-25.6,0
		c-7.1-7.1-7.1-18.6,0-25.6c1.7-1.7,3.8-3.1,5.9-4V96.8c-2.2-0.9-4.2-2.2-5.9-4c-5.4-5.4-6.7-13.2-3.9-19.8L85,46.2L14.2,117
		c-6,6-6,15.6,0,21.5l103.3,103.3c5.9,5.9,15.6,5.9,21.5,0L241.8,139C247.7,133.1,247.7,123.4,241.8,117.5"/>
</g>
</svg>
