<?xml version="1.0" encoding="utf-8"?>
<!-- Generator: Adobe Illustrator 22.1.0, SVG Export Plug-In . SVG Version: 6.00 Build 0)  -->
<svg version="1.1" id="Layer_1" xmlns="http://www.w3.org/2000/svg" xmlns:xlink="http://www.w3.org/1999/xlink" x="0px" y="0px"
	 viewBox="0 0 256 255" style="enable-background:new 0 0 256 255;" xml:space="preserve">
<style type="text/css">
	.st0{fill:url(#SVGID_1_);}
	.st1{fill:url(#SVGID_2_);}
</style>
<g>
	
		<linearGradient id="SVGID_1_" gradientUnits="userSpaceOnUse" x1="-617.5501" y1="576.1318" x2="-616.9396" y2="575.5259" gradientTransform="matrix(189.3834 0 0 -189.8058 116986.25 109385.7969)">
		<stop  offset="0" style="stop-color:#387EB8"/>
		<stop  offset="1" style="stop-color:#366994"/>
	</linearGradient>
	<path class="st0" d="M126.7,11.2C67.3,11.2,71,36.9,71,36.9l0.1,26.7h56.7v8H48.6c0,0-38-4.3-38,55.6c0,59.9,33.2,57.8,33.2,57.8
		h19.8v-27.8c0,0-1.1-33.2,32.6-33.2h56.2c0,0,31.6,0.5,31.6-30.5V42.2C183.9,42.2,188.7,11.2,126.7,11.2L126.7,11.2L126.7,11.2z
		 M95.4,29.1c5.6,0,10.2,4.6,10.2,10.2s-4.6,10.2-10.2,10.2c-5.6,0-10.2-4.6-10.2-10.2S89.8,29.1,95.4,29.1L95.4,29.1L95.4,29.1z"/>
	
		<linearGradient id="SVGID_2_" gradientUnits="userSpaceOnUse" x1="-617.523" y1="576.082" x2="-616.8672" y2="575.4607" gradientTransform="matrix(189.3834 0 0 -189.8058 117052.25 109450.0703)">
		<stop  offset="0" style="stop-color:#FFE052"/>
		<stop  offset="1" style="stop-color:#FFC331"/>
	</linearGradient>
	<path class="st1" d="M128.3,243.8c59.4,0,55.7-25.7,55.7-25.7l-0.1-26.7h-56.7v-8h79.2c0,0,38,4.3,38-55.6
		c0-59.9-33.2-57.8-33.2-57.8h-19.8v27.8c0,0,1.1,33.2-32.6,33.2h-56.2c0,0-31.6-0.5-31.6,30.5v51.3
		C71.1,212.8,66.3,243.8,128.3,243.8L128.3,243.8L128.3,243.8z M159.6,225.9c-5.6,0-10.2-4.6-10.2-10.2s4.6-10.2,10.2-10.2
		c5.6,0,10.2,4.6,10.2,10.2C169.8,221.3,165.2,225.9,159.6,225.9L159.6,225.9L159.6,225.9z"/>
</g>
</svg>
