<?xml version="1.0" encoding="UTF-8"?>
<svg version="1.1" xmlns="http://www.w3.org/2000/svg" width="500" height="500">
<path d="M0 0 C3.47974487 -0.55703426 6.54423442 -0.77651875 10 0 C12.72447738 2.63401621 14.46660034 5.54673411 16 9 C16 9.66 16 10.32 16 11 C16.66 11 17.32 11 18 11 C18.63228516 12.17369141 18.63228516 12.17369141 19.27734375 13.37109375 C20.09912109 14.88896484 20.09912109 14.88896484 20.9375 16.4375 C21.75541016 17.95150391 21.75541016 17.95150391 22.58984375 19.49609375 C23.77699468 21.86670493 23.77699468 21.86670493 25 23 C25.33 17.39 25.66 11.78 26 6 C24.68 5.67 23.36 5.34 22 5 C22 3.35 22 1.7 22 0 C32.23 0 42.46 0 53 0 C53 1.65 53 3.3 53 5 C51.68 5.33 50.36 5.66 49 6 C49 9.3 49 12.6 49 16 C49.99 16 50.98 16 52 16 C52.66 14.35 53.32 12.7 54 11 C54.66 11 55.32 11 56 11 C56 10.34 56 9.68 56 9 C56.66 9 57.32 9 58 9 C58 7.68 58 6.36 58 5 C58 3.35 58 1.7 58 0 C62.29 0 66.58 0 71 0 C71 1.65 71 3.3 71 5 C68.7734375 6.50390625 68.7734375 6.50390625 66 8 C63.68048344 10.31652814 63.68048344 10.31652814 61.625 12.9375 C60.91601562 13.79214844 60.20703125 14.64679688 59.4765625 15.52734375 C57.7444191 17.85708038 57.7444191 17.85708038 58.2734375 20.31640625 C58.51320313 20.87199219 58.75296875 21.42757812 59 22 C59.66 22 60.32 22 61 22 C62.2890625 23.4609375 62.2890625 23.4609375 63.625 25.375 C64.07101562 26.00148437 64.51703125 26.62796875 64.9765625 27.2734375 C66 29 66 29 66 31 C66.66 31 67.32 31 68 31 C68 31.66 68 32.32 68 33 C69.32 33 70.64 33 72 33 C72 34.65 72 36.3 72 38 C67.38 38 62.76 38 58 38 C58.33 36.02 58.66 34.04 59 32 C57.74427597 29.40315963 57.74427597 29.40315963 55.75 27.1875 C55.12609375 26.41792969 54.5021875 25.64835937 53.859375 24.85546875 C52.04226272 22.76615822 52.04226272 22.76615822 49 22 C49 25.63 49 29.26 49 33 C50.32 33.33 51.64 33.66 53 34 C53 35.32 53 36.64 53 38 C48.05 38 43.1 38 38 38 C38.33 36.35 38.66 34.7 39 33 C39.99 33 40.98 33 42 33 C42 24.09 42 15.18 42 6 C39.03 6 36.06 6 33 6 C33 16.56 33 27.12 33 38 C26 38 26 38 24.22265625 36.57421875 C23.83980469 35.95160156 23.45695312 35.32898438 23.0625 34.6875 C22.66160156 34.07261719 22.26070313 33.45773438 21.84765625 32.82421875 C21 31 21 31 21 28 C20.34 28 19.68 28 19 28 C18.68546875 27.39671875 18.3709375 26.7934375 18.046875 26.171875 C17.61890625 25.37265625 17.1909375 24.5734375 16.75 23.75 C16.33234375 22.96109375 15.9146875 22.1721875 15.484375 21.359375 C13.82644633 18.5304947 13.82644633 18.5304947 10 15 C10 20.94 10 26.88 10 33 C11.32 33 12.64 33 14 33 C14 34.65 14 36.3 14 38 C9.38 38 4.76 38 0 38 C0 36.35 0 34.7 0 33 C1.32 33 2.64 33 4 33 C4 24.09 4 15.18 4 6 C2.68 5.67 1.36 5.34 0 5 C0 3.35 0 1.7 0 0 Z " fill="#DCDCDC" transform="translate(240,209)"/>
<path d="M0 0 C4.95 0 9.9 0 15 0 C15 1.65 15 3.3 15 5 C13.02 5.99 13.02 5.99 11 7 C11 9.97 11 12.94 11 16 C15.95 16 20.9 16 26 16 C26 12.7 26 9.4 26 6 C24.68 5.67 23.36 5.34 22 5 C22 3.35 22 1.7 22 0 C26.95 0 31.9 0 37 0 C37 1.65 37 3.3 37 5 C35.35 5.33 33.7 5.66 32 6 C32.33 14.58 32.66 23.16 33 32 C34.65 32.66 36.3 33.32 38 34 C41.743025 31.50465 42.46510358 28.86114699 43.91796875 24.8046875 C44.18007645 24.09724396 44.44218414 23.38980042 44.7122345 22.66091919 C45.54664797 20.40225119 46.36719362 18.13882476 47.1875 15.875 C47.75104662 14.34211435 48.31548912 12.80955773 48.88085938 11.27734375 C50.26432774 7.52196711 51.63538083 3.76226484 53 0 C54.98 0 56.96 0 59 0 C61.81119207 6.97690198 64.55979575 13.97557779 67.25 21 C67.61351562 21.93972656 67.97703125 22.87945312 68.3515625 23.84765625 C68.69445312 24.74355469 69.03734375 25.63945312 69.390625 26.5625 C69.70032227 27.36816406 70.01001953 28.17382812 70.32910156 29.00390625 C71 31 71 31 71 33 C72.485 33.495 72.485 33.495 74 34 C74 35.32 74 36.64 74 38 C70.04 38 66.08 38 62 38 C62.29296875 35.94921875 62.5859375 33.8984375 62.87890625 31.84765625 C62.91886719 31.23792969 62.95882812 30.62820312 63 30 C61.12175109 28.12175109 57.96064724 28.60897603 55.4375 28.4375 C54.23996094 28.35371094 53.04242188 28.26992187 51.80859375 28.18359375 C50.41833984 28.09271484 50.41833984 28.09271484 49 28 C48.505 30.475 48.505 30.475 48 33 C48.66 33 49.32 33 50 33 C50 34.65 50 36.3 50 38 C40.76 38 31.52 38 22 38 C22 36.35 22 34.7 22 33 C23.32 33 24.64 33 26 33 C26 29.37 26 25.74 26 22 C21.05 22 16.1 22 11 22 C11 25.3 11 28.6 11 32 C12.32 32.66 13.64 33.32 15 34 C15 35.32 15 36.64 15 38 C10.05 38 5.1 38 0 38 C0 36.35 0 34.7 0 33 C1.32 33 2.64 33 4 33 C4 24.09 4 15.18 4 6 C2.68 5.67 1.36 5.34 0 5 C0 3.35 0 1.7 0 0 Z M56 12 C53.7448078 14.2551922 53.02276532 16.0047587 52 19 C52 19.99 52 20.98 52 22 C54.31 22 56.62 22 59 22 C60.2537118 20.05649404 60.2537118 20.05649404 59.44140625 18.0546875 C59.15136719 17.33539063 58.86132812 16.61609375 58.5625 15.875 C58.13130859 14.78832031 58.13130859 14.78832031 57.69140625 13.6796875 C57.46324219 13.12539062 57.23507812 12.57109375 57 12 C56.67 12 56.34 12 56 12 Z " fill="#E1E1E1" transform="translate(314,209)"/>
<path d="M0 0 C1.6026782 -0.10824843 3.20745748 -0.18570645 4.8125 -0.25 C5.70582031 -0.29640625 6.59914063 -0.3428125 7.51953125 -0.390625 C10 0 10 0 11.82421875 1.828125 C13 4 13 4 13 7 C13.66 7 14.32 7 15 7 C15.31453125 7.58007812 15.6290625 8.16015625 15.953125 8.7578125 C19.81222141 16.96397585 19.81222141 16.96397585 26 23 C26 17.39 26 11.78 26 6 C24.68 5.67 23.36 5.34 22 5 C22 3.35 22 1.7 22 0 C26.62 0 31.24 0 36 0 C36 1.65 36 3.3 36 5 C34.68 5.33 33.36 5.66 32 6 C32 16.56 32 27.12 32 38 C30.02 38 28.04 38 26 38 C22 33.15789474 22 33.15789474 22 30 C21.34 30 20.68 30 20 30 C19.15115234 28.50146484 19.15115234 28.50146484 18.28515625 26.97265625 C17.5443558 25.66922254 16.80346575 24.36583975 16.0625 23.0625 C15.50272461 22.0734668 15.50272461 22.0734668 14.93164062 21.06445312 C13.23037187 17.84167167 13.23037187 17.84167167 11 15 C10.67 20.94 10.34 26.88 10 33 C11.32 33 12.64 33 14 33 C14 34.65 14 36.3 14 38 C9.38 38 4.76 38 0 38 C-0.33 36.68 -0.66 35.36 -1 34 C0.98 33.505 0.98 33.505 3 33 C3 24.09 3 15.18 3 6 C1.68 5.34 0.36 4.68 -1 4 C-0.67 2.68 -0.34 1.36 0 0 Z " fill="#ECEDED" transform="translate(390,209)"/>
<path d="M0 0 C9.9 0 19.8 0 30 0 C30 1.65 30 3.3 30 5 C28.68 5.33 27.36 5.66 26 6 C26 9.3 26 12.6 26 16 C26.99 16 27.98 16 29 16 C29.66 14.35 30.32 12.7 31 11 C31.66 11 32.32 11 33 11 C33 10.34 33 9.68 33 9 C33.66 9 34.32 9 35 9 C35 7.68 35 6.36 35 5 C35 3.35 35 1.7 35 0 C39.29 0 43.58 0 48 0 C48 1.65 48 3.3 48 5 C45.7734375 6.50390625 45.7734375 6.50390625 43 8 C40.68048344 10.31652814 40.68048344 10.31652814 38.625 12.9375 C37.91601562 13.79214844 37.20703125 14.64679688 36.4765625 15.52734375 C34.7444191 17.85708038 34.7444191 17.85708038 35.2734375 20.31640625 C35.51320313 20.87199219 35.75296875 21.42757812 36 22 C36.66 22 37.32 22 38 22 C39.2890625 23.4609375 39.2890625 23.4609375 40.625 25.375 C41.07101562 26.00148437 41.51703125 26.62796875 41.9765625 27.2734375 C43 29 43 29 43 31 C43.66 31 44.32 31 45 31 C45 31.66 45 32.32 45 33 C46.32 33 47.64 33 49 33 C49 34.65 49 36.3 49 38 C44.38 38 39.76 38 35 38 C35.33 36.02 35.66 34.04 36 32 C34.74427597 29.40315963 34.74427597 29.40315963 32.75 27.1875 C32.12609375 26.41792969 31.5021875 25.64835937 30.859375 24.85546875 C29.04226272 22.76615822 29.04226272 22.76615822 26 22 C26 25.63 26 29.26 26 33 C27.32 33.33 28.64 33.66 30 34 C30 35.32 30 36.64 30 38 C25.05 38 20.1 38 15 38 C15.33 36.35 15.66 34.7 16 33 C16.99 33 17.98 33 19 33 C19 24.09 19 15.18 19 6 C16.03 6 13.06 6 10 6 C10.66 4.35 11.32 2.7 12 1 C8.04 1 4.08 1 0 1 C0 0.67 0 0.34 0 0 Z " fill="#DADBDA" transform="translate(263,209)"/>
<path d="M0 0 C1.98 0 3.96 0 6 0 C8.81119207 6.97690198 11.55979575 13.97557779 14.25 21 C14.61351562 21.93972656 14.97703125 22.87945312 15.3515625 23.84765625 C15.69445312 24.74355469 16.03734375 25.63945312 16.390625 26.5625 C16.70032227 27.36816406 17.01001953 28.17382812 17.32910156 29.00390625 C18 31 18 31 18 33 C18.99 33.33 19.98 33.66 21 34 C21 35.32 21 36.64 21 38 C17.04 38 13.08 38 9 38 C9.29296875 35.94921875 9.5859375 33.8984375 9.87890625 31.84765625 C9.91886719 31.23792969 9.95882812 30.62820312 10 30 C8.12175109 28.12175109 4.96064724 28.60897603 2.4375 28.4375 C1.23996094 28.35371094 0.04242188 28.26992187 -1.19140625 28.18359375 C-2.58166016 28.09271484 -2.58166016 28.09271484 -4 28 C-4.495 30.475 -4.495 30.475 -5 33 C-4.34 33 -3.68 33 -3 33 C-3 34.65 -3 36.3 -3 38 C-12.24 38 -21.48 38 -31 38 C-31 36.35 -31 34.7 -31 33 C-29.68 33 -28.36 33 -27 33 C-27 29.37 -27 25.74 -27 22 C-31.95 22 -36.9 22 -42 22 C-42 23.98 -42 25.96 -42 28 C-42.33 28 -42.66 28 -43 28 C-43 25.69 -43 23.38 -43 21 C-37.39 21 -31.78 21 -26 21 C-26 25.29 -26 29.58 -26 34 C-27.32 34 -28.64 34 -30 34 C-30 34.99 -30 35.98 -30 37 C-25.71 37 -21.42 37 -17 37 C-16.67 36.01 -16.34 35.02 -16 34 C-15.38157227 33.75652832 -14.76314453 33.51305664 -14.12597656 33.26220703 C-10.86254679 31.32468614 -10.1850383 28.22853284 -8.984375 24.8046875 C-8.72368225 24.09724396 -8.4629895 23.38980042 -8.19439697 22.66091919 C-7.36607795 20.40361435 -6.55789028 18.13968649 -5.75 15.875 C-5.19141626 14.3419692 -4.63153544 12.80941034 -4.0703125 11.27734375 C-2.698439 7.52353661 -1.34457353 3.7636675 0 0 Z M3 12 C0.7448078 14.2551922 0.02276532 16.0047587 -1 19 C-1 19.99 -1 20.98 -1 22 C1.31 22 3.62 22 6 22 C7.2537118 20.05649404 7.2537118 20.05649404 6.44140625 18.0546875 C6.15136719 17.33539063 5.86132812 16.61609375 5.5625 15.875 C5.13130859 14.78832031 5.13130859 14.78832031 4.69140625 13.6796875 C4.46324219 13.12539062 4.23507812 12.57109375 4 12 C3.67 12 3.34 12 3 12 Z " fill="#D1D2D2" transform="translate(367,209)"/>
<path d="M0 0 C1.98 0 3.96 0 6 0 C10.36627662 8.93693215 14.11435195 18.28962515 16.48291016 27.97460938 C16.90322306 29.67317564 17.44354034 31.34104161 18 33 C18.99 33.33 19.98 33.66 21 34 C21 35.32 21 36.64 21 38 C17.04 38 13.08 38 9 38 C9.33 34.7 9.66 31.4 10 28 C3.565 28.495 3.565 28.495 -3 29 C-3 30.32 -3 31.64 -3 33 C-3 34.65 -3 36.3 -3 38 C-6.96 38 -10.92 38 -15 38 C-15.33 36.68 -15.66 35.36 -16 34 C-15.37005127 33.91290771 -14.74010254 33.82581543 -14.09106445 33.73608398 C-11.88563908 33.22239591 -11.88563908 33.22239591 -11.11791992 31.37524414 C-10.92818604 30.66489014 -10.73845215 29.95453613 -10.54296875 29.22265625 C-9.41566717 25.37059731 -8.15693608 21.62711235 -6.73828125 17.87109375 C-6.14370117 16.29038086 -6.14370117 16.29038086 -5.53710938 14.67773438 C-5.13298828 13.60845703 -4.72886719 12.53917969 -4.3125 11.4375 C-3.89677734 10.33341797 -3.48105469 9.22933594 -3.05273438 8.09179688 C-2.03666526 5.3939582 -1.01905595 2.69671155 0 0 Z M3 12 C0.96564469 15.72965139 0 17.66905042 0 22 C2.31 22 4.62 22 7 22 C6.01 18.7 5.02 15.4 4 12 C3.67 12 3.34 12 3 12 Z " fill="#DCDDDC" transform="translate(189,209)"/>
<path d="M0 0 C4.62 0 9.24 0 14 0 C14 1.65 14 3.3 14 5 C13.34 5.66 12.68 6.32 12 7 C13.32 9.64 14.64 12.28 16 15 C18.32472205 12.14693203 19.7508258 9.45925163 21 6 C20.34 5.67 19.68 5.34 19 5 C19 3.35 19 1.7 19 0 C23.62 0 28.24 0 33 0 C33.495 2.475 33.495 2.475 34 5 C33.38793701 5.25579834 32.77587402 5.51159668 32.14526367 5.77514648 C28.48866114 7.86290965 27.20438055 11.41899364 25.3125 15.0625 C24.70825195 16.15208008 24.70825195 16.15208008 24.09179688 17.26367188 C21.28653412 22.57816463 20.35065688 27.00317307 20 33 C21.32 33.33 22.64 33.66 24 34 C24 35.32 24 36.64 24 38 C19.05 38 14.1 38 9 38 C9 36.35 9 34.7 9 33 C10.32 33 11.64 33 13 33 C12.85742589 26.67489387 12.06590109 22.22675083 8.40234375 17.0234375 C6.36845995 14.0887528 4.77508278 10.94095525 3.11328125 7.78515625 C2.11641534 5.84058707 2.11641534 5.84058707 0 5 C0 3.35 0 1.7 0 0 Z " fill="#D3D4D4" transform="translate(205,209)"/>
<path d="M0 0 C8.58 0 17.16 0 26 0 C26 6.75008221 26 6.75008221 23.4453125 10.63671875 C22.91292969 11.46107422 22.38054687 12.28542969 21.83203125 13.13476562 C21.26871094 13.97716797 20.70539063 14.81957031 20.125 15.6875 C19.56941406 16.54150391 19.01382813 17.39550781 18.44140625 18.27539062 C16.97401411 20.52598122 15.49207463 22.76572655 14 25 C13.34 25.99 12.68 26.98 12 28 C11.34 28 10.68 28 10 28 C10 29.32 10 30.64 10 32 C13.63 32.33 17.26 32.66 21 33 C21 31.68 21 30.36 21 29 C22.98 29 24.96 29 27 29 C27 31.97 27 34.94 27 38 C18.09 38 9.18 38 0 38 C0 31.25142966 0 31.25142966 2.1953125 28.23046875 C2.66155029 27.57304687 3.12778809 26.915625 3.6081543 26.23828125 C4.10871338 25.56152344 4.60927246 24.88476562 5.125 24.1875 C6.13452901 22.77503569 7.14364615 21.36227692 8.15234375 19.94921875 C8.64202637 19.27294434 9.13170898 18.59666992 9.63623047 17.89990234 C11.37924932 15.47165804 13.04149493 12.99478841 14.6875 10.5 C15.450625 9.345 16.21375 8.19 17 7 C13.7 6.67 10.4 6.34 7 6 C6.67 7.32 6.34 8.64 6 10 C4.02 10 2.04 10 0 10 C0 6.7 0 3.4 0 0 Z " fill="#D1D2D1" transform="translate(145,209)"/>
<path d="M0 0 C1.6026782 -0.10824843 3.20745748 -0.18570645 4.8125 -0.25 C5.70582031 -0.29640625 6.59914063 -0.3428125 7.51953125 -0.390625 C10 0 10 0 11.82421875 1.828125 C13 4 13 4 13 7 C13.66 7 14.32 7 15 7 C15.26218749 10.14624993 15.24754367 11.61837017 13.5 14.3125 C13.005 14.869375 12.51 15.42625 12 16 C11.67 15.67 11.34 15.34 11 15 C10.67 20.94 10.34 26.88 10 33 C11.32 33 12.64 33 14 33 C14 34.65 14 36.3 14 38 C9.38 38 4.76 38 0 38 C-0.33 36.68 -0.66 35.36 -1 34 C0.98 33.505 0.98 33.505 3 33 C3 24.09 3 15.18 3 6 C1.68 5.34 0.36 4.68 -1 4 C-0.67 2.68 -0.34 1.36 0 0 Z " fill="#DDDEDD" transform="translate(390,209)"/>
<path d="M0 0 C8.64130821 -1.05709207 8.64130821 -1.05709207 11.77734375 1.3828125 C13.82790244 4.12877804 14.89950137 6.27975984 15.375 9.6875 C15.02613476 11.83883565 14.6192176 13.91014061 14 16 C12.68 15.67 11.36 15.34 10 15 C10 20.94 10 26.88 10 33 C11.32 33 12.64 33 14 33 C14 34.65 14 36.3 14 38 C9.38 38 4.76 38 0 38 C0 36.35 0 34.7 0 33 C1.32 33 2.64 33 4 33 C4 24.09 4 15.18 4 6 C2.68 5.67 1.36 5.34 0 5 C0 3.35 0 1.7 0 0 Z " fill="#E7E9E8" transform="translate(240,209)"/>
<path d="M0 0 C0.375 2.25 0.375 2.25 0 5 C-3.44111906 7.80091086 -6.92063584 9.36825434 -11 11 C-11.33 11.66 -11.66 12.32 -12 13 C-11.30132812 13.19335938 -10.60265625 13.38671875 -9.8828125 13.5859375 C-8.97273438 13.84632813 -8.06265625 14.10671875 -7.125 14.375 C-6.22007813 14.63023437 -5.31515625 14.88546875 -4.3828125 15.1484375 C-2 16 -2 16 0 18 C0.125 20.625 0.125 20.625 0 23 C-3.60023703 24.20007901 -4.11876786 23.76471259 -7.4140625 22.1640625 C-8.25710937 21.75929687 -9.10015625 21.35453125 -9.96875 20.9375 C-10.8453125 20.504375 -11.721875 20.07125 -12.625 19.625 C-13.50929688 19.19960937 -14.39359375 18.77421875 -15.3046875 18.3359375 C-21.8234747 15.1765253 -21.8234747 15.1765253 -23 14 C-23.04063832 12.33382885 -23.042721 10.66611905 -23 9 C-17.66666667 6.33333333 -12.33333333 3.66666667 -7 1 C-6.32163086 0.60925293 -5.64326172 0.21850586 -4.94433594 -0.18408203 C-3 -1 -3 -1 0 0 Z " fill="#DEDFDE" transform="translate(122,221)"/>
<path d="M0 0 C5.74469519 1.26947505 10.72442735 3.04489887 16 5.625 C16.67933594 5.94984375 17.35867188 6.2746875 18.05859375 6.609375 C19.70889995 7.39966248 21.35492396 8.19888224 23 9 C23 10.98 23 12.96 23 15 C8.07355021 22.73850778 8.07355021 22.73850778 0 24 C0 22.02 0 20.04 0 18 C3.96 16.02 7.92 14.04 12 12 C8.04 10.35 4.08 8.7 0 7 C0 4.69 0 2.38 0 0 Z " fill="#D1D1D1" transform="translate(429,221)"/>
<path d="M0 0 C1.2065625 0.0309375 1.2065625 0.0309375 2.4375 0.0625 C1.82456063 4.57961522 0.66101396 8.52549843 -0.9609375 12.78125 C-1.31437729 13.71269836 -1.31437729 13.71269836 -1.67495728 14.66296387 C-2.1715949 15.96821917 -2.6709365 17.27244854 -3.17285156 18.57568359 C-3.9344157 20.55448593 -4.68661209 22.53665644 -5.4375 24.51953125 C-7.59182287 30.16610153 -9.78355303 35.68573113 -12.5625 41.0625 C-14.2125 41.0625 -15.8625 41.0625 -17.5625 41.0625 C-16.8950757 35.19309217 -14.85582646 29.93747313 -12.8125 24.4375 C-12.27387329 22.97340698 -12.27387329 22.97340698 -11.72436523 21.47973633 C-3.80359608 0.09277064 -3.80359608 0.09277064 0 0 Z " fill="#CFD0CF" transform="translate(140.5625,208.9375)"/>
<path d="M0 0 C0.66 0 1.32 0 2 0 C3.2890625 1.4609375 3.2890625 1.4609375 4.625 3.375 C5.07101562 4.00148437 5.51703125 4.62796875 5.9765625 5.2734375 C7 7 7 7 7 9 C7.66 9 8.32 9 9 9 C9 9.66 9 10.32 9 11 C10.32 11 11.64 11 13 11 C13 12.65 13 14.3 13 16 C8.38 16 3.76 16 -1 16 C-0.67 14.02 -0.34 12.04 0 10 C-1.81378992 6.65247442 -1.81378992 6.65247442 -4 4 C-3.01 3.67 -2.02 3.34 -1 3 C-0.67 2.01 -0.34 1.02 0 0 Z " fill="#D8D9D9" transform="translate(299,231)"/>
<path d="M0 0 C1.32 0.33 2.64 0.66 4 1 C4 3.31 4 5.62 4 8 C-4.25 8 -12.5 8 -21 8 C-21 6.68 -21 5.36 -21 4 C-20.01 3.67 -19.02 3.34 -18 3 C-17.34 3.33 -16.68 3.66 -16 4 C-13.28737884 4.2322646 -10.59226874 4.41936235 -7.875 4.5625 C-6.74384766 4.62727539 -6.74384766 4.62727539 -5.58984375 4.69335938 C-3.72678112 4.7994832 -1.86341476 4.90025001 0 5 C0 3.35 0 1.7 0 0 Z " fill="#FBFCFC" transform="translate(167,238)"/>
<path d="M0 0 C0.66 0.33 1.32 0.66 2 1 C1.63495936 6.66442374 0.9445679 11.00703705 -2 16 C-3.65 16 -5.3 16 -7 16 C-6.40895235 11.15340923 -5.02055843 7.39251833 -3 3 C-2.34 3 -1.68 3 -1 3 C-0.67 2.01 -0.34 1.02 0 0 Z " fill="#DCDEDD" transform="translate(130,234)"/>
<path d="M0 0 C1.32 0.66 2.64 1.32 4 2 C4 2.66 4 3.32 4 4 C4.99 4.33 5.98 4.66 7 5 C7 6.32 7 7.64 7 9 C3.04 9 -0.92 9 -5 9 C-5 7.68 -5 6.36 -5 5 C-4.01 5 -3.02 5 -2 5 C-1.7834375 4.0409375 -1.7834375 4.0409375 -1.5625 3.0625 C-1 1 -1 1 0 0 Z " fill="#D9D9D9" transform="translate(381,238)"/>
<path d="M0 0 C9.9 0 19.8 0 30 0 C30 1.65 30 3.3 30 5 C29.67 3.68 29.34 2.36 29 1 C24.71 1 20.42 1 16 1 C16.33 2.32 16.66 3.64 17 5 C14.69 5.33 12.38 5.66 10 6 C10.66 4.35 11.32 2.7 12 1 C8.04 1 4.08 1 0 1 C0 0.67 0 0.34 0 0 Z " fill="#7B7C7B" transform="translate(263,209)"/>
<path d="M0 0 C1.98 0.66 3.96 1.32 6 2 C6 3.32 6 4.64 6 6 C1.71 6 -2.58 6 -7 6 C-7 5.01 -7 4.02 -7 3 C-5.5459375 2.5359375 -5.5459375 2.5359375 -4.0625 2.0625 C-1.15934208 1.30476658 -1.15934208 1.30476658 0 0 Z " fill="#F0F1F1" transform="translate(222,240)"/>
<path d="M0 0 C2.5625 0.1875 2.5625 0.1875 4.5625 2.1875 C4.5625 3.1775 4.5625 4.1675 4.5625 5.1875 C1.47440305 6.95212683 0.32937864 7.1875 -3.4375 7.1875 C-3.48004356 5.18795254 -3.47830783 3.18708364 -3.4375 1.1875 C-2.4375 0.1875 -2.4375 0.1875 0 0 Z " fill="#C7C8C7" transform="translate(432.4375,237.8125)"/>
<path d="M0 0 C4.62 0 9.24 0 14 0 C14 1.65 14 3.3 14 5 C12.68 5.33 11.36 5.66 10 6 C10 8.97 10 11.94 10 15 C9.67 15 9.34 15 9 15 C9 10.71 9 6.42 9 2 C6.03 1.67 3.06 1.34 0 1 C0 0.67 0 0.34 0 0 Z " fill="#B3B4B3" transform="translate(412,209)"/>
<path d="M0 0 C0.66 0.33 1.32 0.66 2 1 C1.67 2.98 1.34 4.96 1 7 C-0.32 7 -1.64 7 -3 7 C-3 5.68 -3 4.36 -3 3 C-2.34 3 -1.68 3 -1 3 C-0.67 2.01 -0.34 1.02 0 0 Z " fill="#FCFDFC" transform="translate(130,234)"/>
<path d="M0 0 C0.66 0.66 1.32 1.32 2 2 C1 5 1 5 -2 7 C-2.33 5.35 -2.66 3.7 -3 2 C-2.01 1.34 -1.02 0.68 0 0 Z " fill="#B9BAB9" transform="translate(192,217)"/>
</svg>
